<mxfile host="app.diagrams.net" modified="2021-09-16T17:11:25.183Z" agent="5.0 (Windows NT 10.0; Win64; x64) AppleWebKit/537.36 (KHTML, like Gecko) Chrome/93.0.4577.82 Safari/537.36" etag="4f-tus3Sn_wOKvcKJN0J" version="15.2.5" type="github">
  <diagram id="e6m10x-uRhs_gHwGIP7R" name="Page-1">
    <mxGraphModel dx="782" dy="436" grid="1" gridSize="10" guides="1" tooltips="1" connect="1" arrows="1" fold="1" page="1" pageScale="1" pageWidth="827" pageHeight="1169" math="0" shadow="0">
      <root>
        <mxCell id="0" />
        <mxCell id="1" parent="0" />
        <mxCell id="ziUaPbk_OteyMrfKzhlk-14" value="" style="edgeStyle=orthogonalEdgeStyle;rounded=0;orthogonalLoop=1;jettySize=auto;html=1;" parent="1" source="ziUaPbk_OteyMrfKzhlk-15" target="ziUaPbk_OteyMrfKzhlk-19" edge="1">
          <mxGeometry relative="1" as="geometry" />
        </mxCell>
        <mxCell id="ziUaPbk_OteyMrfKzhlk-15" value="Start" style="ellipse;whiteSpace=wrap;html=1;" parent="1" vertex="1">
          <mxGeometry x="420" y="180" width="120" height="80" as="geometry" />
        </mxCell>
        <mxCell id="ziUaPbk_OteyMrfKzhlk-16" value="" style="edgeStyle=orthogonalEdgeStyle;rounded=0;orthogonalLoop=1;jettySize=auto;html=1;startArrow=none;exitX=0;exitY=0.5;exitDx=0;exitDy=0;entryX=1;entryY=0.5;entryDx=0;entryDy=0;" parent="1" source="ziUaPbk_OteyMrfKzhlk-19" target="ziUaPbk_OteyMrfKzhlk-22" edge="1">
          <mxGeometry relative="1" as="geometry">
            <mxPoint x="160" y="340" as="targetPoint" />
            <mxPoint x="265" y="340" as="sourcePoint" />
          </mxGeometry>
        </mxCell>
        <mxCell id="ziUaPbk_OteyMrfKzhlk-17" value="" style="edgeStyle=orthogonalEdgeStyle;rounded=0;orthogonalLoop=1;jettySize=auto;html=1;" parent="1" source="ziUaPbk_OteyMrfKzhlk-19" edge="1">
          <mxGeometry relative="1" as="geometry">
            <mxPoint x="480" y="520" as="targetPoint" />
          </mxGeometry>
        </mxCell>
        <mxCell id="ziUaPbk_OteyMrfKzhlk-18" style="edgeStyle=orthogonalEdgeStyle;rounded=0;orthogonalLoop=1;jettySize=auto;html=1;exitX=0;exitY=1;exitDx=0;exitDy=0;entryX=0.5;entryY=1;entryDx=0;entryDy=0;" parent="1" source="ziUaPbk_OteyMrfKzhlk-19" target="ziUaPbk_OteyMrfKzhlk-22" edge="1">
          <mxGeometry relative="1" as="geometry">
            <Array as="points">
              <mxPoint x="460" y="400" />
              <mxPoint x="90" y="400" />
            </Array>
          </mxGeometry>
        </mxCell>
        <mxCell id="ziUaPbk_OteyMrfKzhlk-19" value="" style="rhombus;whiteSpace=wrap;html=1;" parent="1" vertex="1">
          <mxGeometry x="440" y="300" width="80" height="80" as="geometry" />
        </mxCell>
        <mxCell id="ziUaPbk_OteyMrfKzhlk-20" style="edgeStyle=orthogonalEdgeStyle;rounded=0;orthogonalLoop=1;jettySize=auto;html=1;entryX=1;entryY=0.5;entryDx=0;entryDy=0;exitX=1;exitY=0.5;exitDx=0;exitDy=0;" parent="1" target="ziUaPbk_OteyMrfKzhlk-19" edge="1">
          <mxGeometry relative="1" as="geometry">
            <Array as="points">
              <mxPoint x="570" y="550" />
              <mxPoint x="570" y="340" />
            </Array>
            <mxPoint x="625" y="550" as="sourcePoint" />
          </mxGeometry>
        </mxCell>
        <mxCell id="ziUaPbk_OteyMrfKzhlk-22" value="Stop" style="ellipse;whiteSpace=wrap;html=1;" parent="1" vertex="1">
          <mxGeometry x="30" y="300" width="120" height="80" as="geometry" />
        </mxCell>
        <mxCell id="ziUaPbk_OteyMrfKzhlk-23" value="BASELIGHT = currentLight / 2 = 5" style="text;html=1;align=center;verticalAlign=middle;resizable=0;points=[];autosize=1;strokeColor=none;" parent="1" vertex="1">
          <mxGeometry x="205" y="250" width="200" height="20" as="geometry" />
        </mxCell>
        <mxCell id="ziUaPbk_OteyMrfKzhlk-24" value="if(btn = 1)" style="text;html=1;align=center;verticalAlign=middle;resizable=0;points=[];autosize=1;strokeColor=none;fillColor=none;" parent="1" vertex="1">
          <mxGeometry x="245" y="400" width="70" height="20" as="geometry" />
        </mxCell>
        <mxCell id="ziUaPbk_OteyMrfKzhlk-25" value="if light_sensor &amp;gt; BASELIGHT" style="text;html=1;align=center;verticalAlign=middle;resizable=0;points=[];autosize=1;strokeColor=none;fillColor=none;" parent="1" vertex="1">
          <mxGeometry x="215" y="310" width="170" height="20" as="geometry" />
        </mxCell>
        <mxCell id="ziUaPbk_OteyMrfKzhlk-32" style="edgeStyle=orthogonalEdgeStyle;rounded=0;orthogonalLoop=1;jettySize=auto;html=1;entryX=0;entryY=0.5;entryDx=0;entryDy=0;" parent="1" source="ziUaPbk_OteyMrfKzhlk-27" target="ziUaPbk_OteyMrfKzhlk-31" edge="1">
          <mxGeometry relative="1" as="geometry">
            <Array as="points">
              <mxPoint x="600" y="405" />
            </Array>
          </mxGeometry>
        </mxCell>
        <mxCell id="ziUaPbk_OteyMrfKzhlk-27" value="if light_sensor &amp;lt; BASELIGHT || sonar_sensor &amp;lt; 50" style="whiteSpace=wrap;html=1;" parent="1" vertex="1">
          <mxGeometry x="350" y="520" width="280" height="60" as="geometry" />
        </mxCell>
        <mxCell id="ziUaPbk_OteyMrfKzhlk-30" value="if sonar_sensor &amp;lt; 50" style="text;html=1;align=center;verticalAlign=middle;resizable=0;points=[];autosize=1;strokeColor=none;fillColor=none;" parent="1" vertex="1">
          <mxGeometry x="610" y="430" width="120" height="20" as="geometry" />
        </mxCell>
        <mxCell id="ziUaPbk_OteyMrfKzhlk-33" style="edgeStyle=orthogonalEdgeStyle;rounded=0;orthogonalLoop=1;jettySize=auto;html=1;entryX=1;entryY=0;entryDx=0;entryDy=0;" parent="1" source="ziUaPbk_OteyMrfKzhlk-31" target="ziUaPbk_OteyMrfKzhlk-19" edge="1">
          <mxGeometry relative="1" as="geometry">
            <Array as="points">
              <mxPoint x="670" y="300" />
              <mxPoint x="500" y="300" />
            </Array>
          </mxGeometry>
        </mxCell>
        <mxCell id="ziUaPbk_OteyMrfKzhlk-31" value="avoid()" style="rounded=1;whiteSpace=wrap;html=1;" parent="1" vertex="1">
          <mxGeometry x="640" y="390" width="60" height="30" as="geometry" />
        </mxCell>
        <mxCell id="ziUaPbk_OteyMrfKzhlk-34" value="BASEDEG = 2.7" style="text;html=1;align=center;verticalAlign=middle;resizable=0;points=[];autosize=1;strokeColor=none;fillColor=none;" parent="1" vertex="1">
          <mxGeometry x="205" y="220" width="100" height="20" as="geometry" />
        </mxCell>
      </root>
    </mxGraphModel>
  </diagram>
</mxfile>
